<svg xmlns="http://www.w3.org/2000/svg" fill="none" viewBox="0 0 147 56"><path fill="#FCF5ED" d="M146.768 5.063c0 8.288-39.439 17.436-42.426 17.436-1.674 0-3.574-.391-3.574-1.955 0-.522.595-1.277 1.64-2.188l-2.77-4.982a1.288 1.288 0 0 1 .632-1.817l.476-.193a3.125 3.125 0 0 1 2.654.142l5.026 2.696a119.507 119.507 0 0 1 6.516-3.62l-9.794-6.436a1.29 1.29 0 0 1 .015-2.16l.801-.51a5.629 5.629 0 0 1 4.478-.692l16.293 4.354c5.081-2.043 9.674-3.437 12.393-3.437.726 0 1.453.02 2.155.07l-4.921 2.25-.118 1.677 7.596-3.537c1.82.44 2.928 1.261 2.928 2.902zM126.946 19.37l6.078 6.995c.37.426.974.554 1.482.315l.814-.383a3.852 3.852 0 0 0 2.168-3.93l-.761-6.591a.632.632 0 0 0-.837-.53l-8.679 3.097a.644.644 0 0 0-.265 1.027zM26.623 7.464c-.803-.122-1.646-.417-2.529-.885V5.421h7.585v1.158a5.441 5.441 0 0 1-1.084.55 8.574 8.574 0 0 1-1.113.335l-5.327 19.298-3.13.366-4.665-14.756-4.544 14.39-3.16.366-5.87-19.664a6.618 6.618 0 0 1-1.173-.336A8.212 8.212 0 0 1 .59 6.58V5.421h9.75v1.158a9.27 9.27 0 0 1-1.173.519 12.62 12.62 0 0 1-1.324.366l2.799 10.762.632 3.963h.06l1.053-4.116L16.39 5.421h1.776l4.273 12.5 1.023 3.963h.06l.693-4.024 2.408-10.396zM30.296 19.14c0-1.24.18-2.347.542-3.323.38-.996.912-1.84 1.595-2.53A7.066 7.066 0 0 1 34.96 11.7c.983-.366 2.096-.549 3.34-.549 1.405 0 2.609.204 3.612.61 1.023.386 1.856.935 2.498 1.646.662.692 1.143 1.535 1.444 2.531.301.976.452 2.043.452 3.201 0 1.24-.18 2.358-.542 3.354a6.733 6.733 0 0 1-1.595 2.5c-.682.69-1.525 1.22-2.528 1.585-.983.366-2.097.549-3.34.549-1.365 0-2.549-.193-3.552-.58-1.003-.406-1.836-.955-2.498-1.646a6.764 6.764 0 0 1-1.475-2.53c-.32-.996-.481-2.073-.481-3.232zm4.665 0c0 .915.05 1.758.15 2.53.12.753.321 1.393.602 1.921.281.529.662.945 1.144 1.25.481.285 1.103.427 1.866.427.441 0 .842-.102 1.203-.305.362-.223.673-.569.933-1.036.261-.488.452-1.118.572-1.89.14-.793.21-1.759.21-2.897 0-.935-.06-1.778-.18-2.53-.1-.752-.29-1.393-.572-1.921a2.9 2.9 0 0 0-1.083-1.22c-.461-.304-1.043-.457-1.745-.457-.522 0-.974.112-1.355.336-.381.203-.702.548-.963 1.036-.26.468-.461 1.098-.602 1.89-.12.773-.18 1.728-.18 2.866zM55.96 15.024c-.24.122-.522.326-.843.61-.32.285-.612.752-.872 1.402v7.805c.4.04.802.122 1.203.244.402.102.803.264 1.204.488v1.189h-8.728v-1.189a5.473 5.473 0 0 1 1.024-.457c.32-.102.642-.193.963-.275V13.683l-1.987-.244V12.25a7.928 7.928 0 0 1 1.174-.396c.482-.122.973-.224 1.475-.305.501-.102.983-.183 1.444-.244l1.204-.152h1.024v4.054h.12c.16-.447.391-.914.692-1.402a7.872 7.872 0 0 1 1.114-1.342 5.37 5.37 0 0 1 1.384-.975 3.25 3.25 0 0 1 1.565-.335c.22.284.411.69.572 1.219.16.508.29.996.391 1.463v1.19H55.96zM69.433 26.762h-8.307v-1.189a9.814 9.814 0 0 1 1.987-.732V6.366l-2.288-.244V4.933c.261-.122.622-.244 1.084-.366.461-.122.953-.223 1.474-.305a23.376 23.376 0 0 1 1.595-.244 27.932 27.932 0 0 1 1.445-.182h1.023V24.84a9.815 9.815 0 0 1 1.987.732v1.189zM81.382 23.744c-.1.447-.281.874-.542 1.28-.261.407-.572.773-.933 1.098a4.43 4.43 0 0 1-1.234.732 3.966 3.966 0 0 1-1.475.274c-1.986 0-3.5-.63-4.544-1.89-1.023-1.28-1.535-3.232-1.535-5.854 0-1.341.18-2.51.542-3.506.36-1.016.862-1.87 1.504-2.56a6.308 6.308 0 0 1 2.378-1.556c.923-.345 1.946-.518 3.07-.518.36 0 .662.01.903.03.26.02.491.051.692.092.22.02.421.071.602.152.2.061.421.132.662.214V6.366l-2.287-.244V4.933c.28-.122.662-.234 1.143-.335a31.233 31.233 0 0 1 1.565-.275 52.488 52.488 0 0 1 1.595-.274c.522-.081.953-.153 1.294-.213h1.024v20.761l1.986.244v1.067a5.94 5.94 0 0 1-1.084.397c-.44.122-.902.233-1.384.335-.481.102-.953.183-1.414.244-.442.081-.813.142-1.114.183h-1.023l-.271-3.323h-.12zm-2.74.945c.703 0 1.295-.224 1.776-.67.482-.448.833-1.21 1.054-2.287V13.53a3.506 3.506 0 0 0-.993-.397c-.382-.101-.863-.152-1.445-.152-1.164 0-1.996.538-2.498 1.616-.501 1.056-.752 2.601-.752 4.634 0 1.646.22 2.967.662 3.963.441.996 1.174 1.494 2.197 1.494zM1.523 47.45c0-1.24.18-2.348.542-3.323.38-.996.912-1.84 1.595-2.53a7.066 7.066 0 0 1 2.528-1.586c.983-.366 2.096-.549 3.34-.549 1.405 0 2.608.203 3.612.61 1.023.386 1.856.935 2.498 1.646.662.691 1.143 1.535 1.444 2.53.301.976.452 2.043.452 3.202 0 1.24-.18 2.357-.542 3.353a6.736 6.736 0 0 1-1.595 2.5c-.682.691-1.525 1.22-2.528 1.586-.983.366-2.097.548-3.34.548-1.365 0-2.549-.193-3.552-.579-1.003-.406-1.836-.955-2.498-1.646a6.763 6.763 0 0 1-1.475-2.53c-.32-.996-.481-2.074-.481-3.232zm4.665 0c0 .914.05 1.758.15 2.53.12.752.321 1.393.602 1.921.28.528.662.945 1.144 1.25.481.284 1.103.427 1.866.427.441 0 .842-.102 1.203-.305.362-.224.672-.57.933-1.037.261-.487.452-1.117.572-1.89.14-.793.21-1.758.21-2.896 0-.935-.06-1.779-.18-2.53-.1-.753-.29-1.393-.572-1.921a2.9 2.9 0 0 0-1.083-1.22c-.461-.305-1.043-.457-1.746-.457-.521 0-.973.112-1.354.335-.381.204-.702.549-.963 1.037-.26.467-.461 1.097-.602 1.89-.12.772-.18 1.728-.18 2.866zM28.12 32.145c.822 0 1.555.081 2.197.244.662.142 1.163.285 1.505.427-.06.67-.191 1.362-.392 2.073-.2.711-.38 1.3-.541 1.768h-1.024l-1.324-2.896c-.521 0-.963.061-1.324.183a1.535 1.535 0 0 0-.843.64c-.2.325-.35.793-.451 1.403-.1.589-.15 1.361-.15 2.317v1.524h3.19v1.92h-3.19v11.403a10.78 10.78 0 0 1 2.889.732v1.189h-9.21v-1.19a5.869 5.869 0 0 1 1.987-.731V41.749H19.15v-1.19a8.27 8.27 0 0 1 2.288-1.005v-1.068c0-1.26.17-2.296.511-3.11.361-.832.843-1.483 1.445-1.95a5.092 5.092 0 0 1 2.107-1.006 12.034 12.034 0 0 1 2.618-.275zM38.01 40.56a7.87 7.87 0 0 1 2.407-1.037v-2.47c.12-.121.321-.233.602-.335.3-.122.612-.223.933-.305a24.893 24.893 0 0 1 1.776-.457h1.023v3.872h3.972v1.92h-3.972v7.897c0 1.26.15 2.134.451 2.622.321.488.843.731 1.565.731.361 0 .762-.02 1.204-.06.461-.061.883-.163 1.264-.305l.21 1.006c-.18.183-.45.376-.812.579a8.42 8.42 0 0 1-1.204.58 9.043 9.043 0 0 1-1.474.457 7.255 7.255 0 0 1-1.656.182c-1.304 0-2.277-.345-2.919-1.036-.642-.691-.963-1.809-.963-3.354V41.75h-2.408v-1.19zM58.517 43.334c-.24.122-.522.325-.843.61-.32.284-.612.752-.873 1.402v7.805c.402.04.803.122 1.204.244.401.101.803.264 1.204.488v1.189h-8.728v-1.19a5.49 5.49 0 0 1 1.024-.457 17.1 17.1 0 0 1 .963-.274V41.993l-1.987-.244v-1.19a7.94 7.94 0 0 1 1.174-.396c.482-.122.973-.223 1.475-.304.501-.102.983-.184 1.444-.244l1.204-.153h1.023v4.055h.12c.161-.447.392-.915.693-1.403a7.871 7.871 0 0 1 1.114-1.34 5.373 5.373 0 0 1 1.384-.977 3.251 3.251 0 0 1 1.565-.335c.22.285.411.691.572 1.22.16.508.29.996.391 1.463v1.189h-4.123zM76.895 50.651v1.158c.02.326.05.671.09 1.037l2.077.305v1.067c-.24.122-.572.244-.993.366a36.78 36.78 0 0 1-1.294.366c-.442.101-.883.183-1.324.244-.442.08-.833.142-1.174.182h-1.023a4.524 4.524 0 0 1-.362-1.402c-.04-.467-.07-1.036-.09-1.707h-.15c-.1.406-.271.803-.512 1.189a4.37 4.37 0 0 1-.933 1.006 4.641 4.641 0 0 1-1.294.701 4.893 4.893 0 0 1-1.685.275 5.358 5.358 0 0 1-1.836-.305 4.624 4.624 0 0 1-1.475-.854 3.966 3.966 0 0 1-.993-1.311 4.215 4.215 0 0 1-.361-1.768c0-.915.17-1.667.511-2.256.341-.59.873-1.067 1.596-1.433.742-.386 1.685-.67 2.829-.854 1.163-.183 2.568-.315 4.213-.396.16-1.748.09-3.029-.21-3.842-.302-.813-.954-1.22-1.957-1.22-.622 0-1.194.102-1.715.306l-1.415 3.658h-1.324a9.832 9.832 0 0 1-.482-.823c-.14-.325-.28-.66-.421-1.006a22.88 22.88 0 0 1-.331-1.098c-.08-.365-.14-.721-.18-1.067.762-.528 1.745-.945 2.949-1.25a15.517 15.517 0 0 1 3.822-.457c1.144 0 2.077.132 2.799.396.722.244 1.284.59 1.685 1.037.421.427.712.935.873 1.524.16.59.24 1.22.24 1.89 0 1.22-.03 2.328-.09 3.324-.04.975-.06 1.981-.06 3.018zm-6.771 2.347c.421 0 .782-.08 1.083-.243.301-.163.552-.356.753-.58.22-.223.38-.467.481-.731.12-.265.21-.498.27-.702v-3.048c-.942.02-1.715.081-2.317.183-.601.101-1.073.274-1.414.518a1.816 1.816 0 0 0-.722.884c-.12.346-.18.772-.18 1.28 0 .773.18 1.373.54 1.8.362.426.864.64 1.506.64zM86.816 55.438l-6.02-13.69a8.898 8.898 0 0 1-1.594-.731v-1.189h7.915v1.158c-.26.143-.532.285-.813.427-.26.122-.561.234-.903.336l2.8 7.804.571 2.043h.06l.482-2.073 2.558-7.774a5.898 5.898 0 0 1-.903-.305 5.518 5.518 0 0 1-.752-.427v-1.189h5.808v1.189c-.2.142-.451.274-.752.396a7.58 7.58 0 0 1-.963.336l-5.267 13.323-2.227.365zM109.912 52.51c-.161.346-.422.702-.783 1.068-.341.345-.772.66-1.294.945a7.568 7.568 0 0 1-1.775.64 8.126 8.126 0 0 1-2.167.275c-1.244 0-2.348-.183-3.311-.55-.963-.385-1.765-.924-2.407-1.615a7.344 7.344 0 0 1-1.475-2.53c-.321-.976-.482-2.074-.482-3.293 0-2.602.672-4.583 2.017-5.945 1.344-1.362 3.21-2.043 5.597-2.043 1.024 0 1.977.142 2.86.427.902.284 1.645.752 2.227 1.402.602.65 1.013 1.504 1.234 2.561.24 1.057.23 2.348-.031 3.872h-9.239c.02 1.606.421 2.886 1.204 3.842.802.955 1.976 1.432 3.521 1.432.662 0 1.344-.101 2.047-.304.722-.204 1.284-.468 1.685-.793l.572.61zm-6.2-11.31c-.401 0-.762.071-1.083.213-.301.143-.572.407-.813.793-.221.366-.401.874-.542 1.524-.14.63-.24 1.433-.301 2.409h4.846c.14-1.586.05-2.805-.271-3.659-.321-.853-.933-1.28-1.836-1.28zM120.689 55.072h-8.306v-1.19a9.81 9.81 0 0 1 1.986-.731V34.676l-2.287-.244v-1.19a6.713 6.713 0 0 1 1.083-.365c.462-.122.953-.224 1.475-.305a23.389 23.389 0 0 1 1.595-.244 27.831 27.831 0 0 1 1.445-.183h1.023v21.006a9.81 9.81 0 0 1 1.986.732v1.189z"/></svg>